<?xml version="1.0" encoding="utf-8"?>
<!-- Generator: Adobe Illustrator 23.0.1, SVG Export Plug-In . SVG Version: 6.00 Build 0)  -->
<svg version="1.1" id="Warstwa_1" xmlns="http://www.w3.org/2000/svg" xmlns:xlink="http://www.w3.org/1999/xlink" x="0px" y="0px"
	 viewBox="0 0 51.85 29.48" style="enable-background:new 0 0 51.85 29.48;" xml:space="preserve">
<style type="text/css">
	.st0{fill:#1D96D3;}
	.st1{fill:#FFFFFF;}
</style>
<g>
	<path class="st0" d="M51.55,1.94L46.26,7.7c0.98,1.01,1.64,2.29,1.88,3.68c0.64,3.74-1.88,7.29-5.63,7.92l0,1.26
		c0,0.48-0.3,0.91-0.75,1.07c-0.12,0.05-0.27,0.07-0.39,0.07l-3.83,0.01l-0.47,0.01l-22.5,0.05l-0.75,0l-6.88,0.02L6.93,17.2
		l-5.74,0.01c-0.63,0-1.15-0.51-1.14-1.14L0,1.15L1.15,0L50.7,0.02l0.01-0.01c0.29,0,0.56,0.12,0.77,0.31
		C51.95,0.75,51.98,1.47,51.55,1.94z"/>
	<path class="st1" d="M11.51,12.6l-0.01-2.3l2.3-0.01l0.01,2.3L11.51,12.6z M11.51,12.6"/>
	<path class="st1" d="M16.1,12.59l-0.01-2.3l2.3-0.01l0.01,2.3L16.1,12.59z M16.1,12.59"/>
	<path class="st1" d="M20.69,12.58l-0.01-2.3l2.29-0.01l0.01,2.3L20.69,12.58z M20.69,12.58"/>
</g>
<path class="st0" d="M25.24,29.48h-1.08c-2.7,0-4.9-2.21-4.9-4.9l0-4.55h10.88l0,4.55C30.14,27.27,27.94,29.48,25.24,29.48z"/>
</svg>
