<?xml version="1.0" encoding="utf-8"?>
<!-- Generator: Adobe Illustrator 23.0.1, SVG Export Plug-In . SVG Version: 6.00 Build 0)  -->
<svg version="1.1" id="Warstwa_1" xmlns="http://www.w3.org/2000/svg" xmlns:xlink="http://www.w3.org/1999/xlink" x="0px" y="0px"
	 viewBox="0 0 143.36 101.57" style="enable-background:new 0 0 143.36 101.57;" xml:space="preserve">
<style type="text/css">
	.st0{fill:#1D96D3;}
	.st1{fill:#FFFFFF;}
</style>
<g>
	<path class="st0" d="M88.54,36.33c-1.91-3.12-4.55-5.56-7.92-7.32c-3.36-1.76-7.16-2.64-11.39-2.64c-4.22,0-8.02,0.88-11.39,2.64
		c-3.36,1.76-6,4.2-7.91,7.32c-1.91,3.12-2.86,6.65-2.86,10.58c0,3.92,0.95,7.45,2.86,10.57c1.91,3.13,4.55,5.57,7.91,7.33
		c3.37,1.76,7.17,2.64,11.39,2.64c4.23,0,8.03-0.88,11.39-2.64c3.37-1.76,6.01-4.2,7.92-7.33c1.9-3.12,2.86-6.65,2.86-10.57
		C91.4,42.98,90.44,39.45,88.54,36.33z M76.86,52.1c-0.78,1.48-1.84,2.62-3.17,3.42c-1.32,0.81-2.81,1.21-4.46,1.21
		c-1.64,0-3.13-0.4-4.46-1.21c-1.33-0.8-2.38-1.94-3.17-3.42c-0.78-1.48-1.18-3.21-1.18-5.19s0.4-3.71,1.18-5.19
		c0.79-1.48,1.84-2.62,3.17-3.43c1.33-0.8,2.82-1.2,4.46-1.2c0.34,0,0.68,0.02,1.01,0.06c1.25,0.12,2.41,0.51,3.45,1.14
		c1.33,0.81,2.39,1.95,3.17,3.43c0.13,0.24,0.25,0.49,0.36,0.75c0.55,1.31,0.82,2.79,0.82,4.44C78.04,48.89,77.65,50.62,76.86,52.1z
		"/>
	<path class="st0" d="M131.29,66.55l-0.11-17.9l-8.53,14.37h-5.84l-8.53-13.75v17.28H96.22V27.27h10.89L119.9,48.2l12.46-20.93
		h10.89l0.11,39.28H131.29z"/>
</g>
<g>
	<path class="st1" d="M73.67,93.43v8.13h-26.6V69.58h26v8.13h-15.4v3.75H71.2v7.77H57.67v4.2H73.67z"/>
	<path class="st1" d="M85.23,100.17c-2.71-1.42-4.84-3.4-6.38-5.94c-1.54-2.54-2.31-5.43-2.31-8.66s0.77-6.12,2.31-8.66
		c1.54-2.54,3.66-4.52,6.38-5.94c2.71-1.42,5.76-2.13,9.14-2.13c3.11,0,5.88,0.55,8.32,1.65s4.45,2.68,6.03,4.75l-6.81,6.08
		c-1.98-2.5-4.31-3.75-6.99-3.75c-2.25,0-4.07,0.72-5.44,2.17c-1.37,1.45-2.06,3.39-2.06,5.83s0.69,4.38,2.06,5.83
		c1.37,1.45,3.18,2.17,5.44,2.17c2.68,0,5.01-1.25,6.99-3.75l6.81,6.08c-1.58,2.07-3.59,3.66-6.03,4.75s-5.21,1.64-8.32,1.64
		C90.99,102.3,87.94,101.59,85.23,100.17z"/>
	<path class="st1" d="M143.36,69.58v31.99h-10.79V89.78h-9.96v11.79h-10.79V69.58h10.79v11.33h9.96V69.58H143.36z"/>
</g>
<g>
	<g>
		<path class="st0" d="M6.49,21.44H0V0h83.68v21.44H26.75l0,0H6.49L6.49,21.44z"/>
	</g>
</g>
<g>
	<g>
		<path class="st0" d="M19.7,30.04V13.56h21.43v88.74H19.7V49.01l0,0V30.04L19.7,30.04z"/>
	</g>
</g>
<g>
	<path class="st0" d="M106.7,7.61H91.26c-0.75-1.71-2.28-2.95-4.1-3.33V0h-6.92v21.38h6.92v-3.56c1.83-0.38,3.36-1.62,4.1-3.33
		h15.44v1.77c0,0.76,0.36,1.48,0.97,1.94c2.83,2.11,5.92,0.13,5.92-2.56V3.67h-6.89V7.61z"/>
</g>
<path class="st0" d="M89.45,12.2c0,1.46-0.92,2.76-2.3,3.25V6.66c1.37,0.49,2.29,1.79,2.3,3.25V12.2z"/>
<rect x="91.78" y="9.91" class="st0" width="19.51" height="2.3"/>
<path class="st0" d="M110.14,16.79c-0.63,0-1.15-0.51-1.15-1.15V14.5h2.3v1.15C111.29,16.28,110.78,16.79,110.14,16.79L110.14,16.79
	z"/>
</svg>
